<svg xmlns="http://www.w3.org/2000/svg" viewBox="0 0 512 512">
  <path
    fill="#2685E6"
    transform="translate(102.132568359375,80.4920654296875)"
    d="M0 0 C1.31609473 -0.00623996 2.63218946 -0.01247993 3.98816586 -0.01890898 C7.62609296 -0.0355575 11.26359861 -0.02737664 14.90152693 -0.0149641 C18.83071165 -0.00589745 22.75982493 -0.01989133 26.68899536 -0.03088379 C34.3802483 -0.04865641 42.07134497 -0.04483466 49.762604 -0.03323323 C56.0142649 -0.02419422 62.26588205 -0.02297692 68.51754761 -0.02732849 C69.85295653 -0.02824789 69.85295653 -0.02824789 71.21534342 -0.02918586 C73.02399931 -0.03046478 74.83265518 -0.03176164 76.64131105 -0.03307623 C93.59516868 -0.04447834 110.54893975 -0.03137411 127.50278318 -0.00987476 C142.04527445 0.00799589 156.58763799 0.00489168 171.13012695 -0.0135498 C188.02393096 -0.03496303 204.91765912 -0.04337974 221.8114748 -0.03110075 C223.61342175 -0.02982657 225.4153687 -0.02856909 227.21731567 -0.02732849 C228.10387358 -0.02671139 228.99043149 -0.02609429 229.90385479 -0.02545848 C236.14693044 -0.02200694 242.38995793 -0.02782971 248.63302612 -0.0372467 C256.2428117 -0.04847309 263.85243226 -0.04541323 271.46219897 -0.02412373 C275.34374875 -0.01362186 279.22502355 -0.00947657 283.1065712 -0.02272034 C287.31624058 -0.03686626 291.52521757 -0.01995907 295.73486328 0 C296.95898894 -0.00892289 298.1831146 -0.01784577 299.44433498 -0.02703905 C307.2437746 0.04478896 313.10423056 0.85184547 318.92602539 6.50793457 C319.38106445 7.16793457 319.83610352 7.82793457 320.30493164 8.50793457 C320.77801758 9.16793457 321.25110352 9.82793457 321.73852539 10.50793457 C323.84957007 14.24791685 323.99379526 17.73013761 324.00165272 21.97254467 C324.00611056 23.08964516 324.01056841 24.20674565 324.01516134 25.35769767 C324.01488479 27.19866718 324.01488479 27.19866718 324.01460266 29.076828 C324.01827935 30.38063237 324.02195604 31.68443673 324.02574414 33.02775031 C324.03575639 36.64984256 324.03947968 40.27191823 324.04213345 43.89402235 C324.04603876 47.79941662 324.0556169 51.7047978 324.06434631 55.61018372 C324.08410357 65.04282414 324.09417567 74.47546562 324.1030741 83.90812156 C324.10745792 88.35049476 324.11282446 92.79286677 324.11806297 97.23523903 C324.13507397 112.00302603 324.14956834 126.7708123 324.15681171 141.5386076 C324.15872159 145.37042428 324.16064193 149.20224096 324.16259766 153.03405762 C324.1630814 153.98643154 324.16356514 154.93880547 324.16406354 155.92003921 C324.17236461 171.3493406 324.19770342 186.77856447 324.23017833 202.207832 C324.26324969 218.0496475 324.28126052 233.8914236 324.28445596 249.7332738 C324.2866209 258.62754137 324.2953674 267.52169588 324.32091713 276.41592979 C324.34262511 283.99026023 324.35067405 291.56445014 324.34095035 299.13880815 C324.336406 303.00224416 324.33829944 306.86539024 324.35771179 310.72878647 C324.37859299 314.92076917 324.36835719 319.11210907 324.35517883 323.30412292 C324.3716327 325.12836203 324.3716327 325.12836203 324.38841897 326.98945445 C324.32861705 334.86561588 323.41898172 341.74506386 317.83227539 347.66418457 C317.16325195 348.10762207 316.49422852 348.55105957 315.80493164 349.00793457 C315.13333008 349.47199707 314.46172852 349.93605957 313.76977539 350.41418457 C310.28001505 352.42061762 307.44574197 352.63429884 303.50466537 352.63936234 C301.82492602 352.64512405 301.82492602 352.64512405 300.11125255 352.65100217 C298.25803099 352.64970245 298.25803099 352.64970245 296.36737061 352.64837646 C295.05892598 352.65134759 293.75048136 352.65431871 292.4023869 352.65737987 C288.76277013 352.66545891 285.12317308 352.66723994 281.4835484 352.66797733 C277.56113482 352.66982633 273.63873151 352.6773729 269.71632385 352.68411255 C261.13572805 352.697703 252.55513691 352.70372175 243.97453213 352.70812321 C238.6180022 352.71088453 233.26147408 352.71512169 227.90494537 352.71962738 C213.07800281 352.73182117 198.2510617 352.74212014 183.42411423 352.74550247 C182.47487731 352.74572204 181.5256404 352.7459416 180.54763873 352.74616782 C179.12035005 352.74649524 179.12035005 352.74649524 177.66422725 352.74682927 C175.73603105 352.74727274 173.80783486 352.7477193 171.87963867 352.74816895 C170.92318401 352.74839038 169.96672934 352.7486118 168.9812912 352.74883994 C153.48269198 352.7527881 137.98413978 352.77024215 122.48555872 352.79352847 C106.5782435 352.81723622 90.67095188 352.82970407 74.76361871 352.83087039 C65.83029893 352.8317875 56.8970404 352.83754871 47.96373749 352.85569 C40.35676871 352.87108324 32.7498801 352.87621607 25.14289871 352.8679519 C21.26153952 352.86404258 17.38034182 352.86498865 13.49900246 352.87900925 C9.29102713 352.89407075 5.0834164 352.88589002 0.87542725 352.87542725 C-0.96440998 352.88751185 -0.96440998 352.88751185 -2.84141564 352.89984059 C-10.58879196 352.85467034 -15.79596314 352.31371624 -21.88256836 347.19543457 C-27.68756986 340.26168277 -27.56634066 334.22558478 -27.53370667 325.50871277 C-27.53931421 324.1693827 -27.54621762 322.83005753 -27.55430263 321.49074012 C-27.57263656 317.81610373 -27.57225832 314.14167229 -27.56871951 310.4670006 C-27.56810697 306.50162965 -27.58466864 302.53632425 -27.59889221 298.57098389 C-27.62380239 290.8042966 -27.6320563 283.03767763 -27.63372935 275.27095374 C-27.63515526 268.95728114 -27.64132167 262.64363106 -27.65083122 256.32996559 C-27.67724832 238.42629728 -27.69108974 220.52268291 -27.6888398 202.61899497 C-27.68871993 201.65397834 -27.68860006 200.68896171 -27.68847656 199.69470215 C-27.68835392 198.72850615 -27.68823128 197.76231015 -27.68810492 196.76683549 C-27.68688555 181.10804368 -27.71559433 165.44946829 -27.75789166 149.79073908 C-27.80098783 133.70928376 -27.82170196 117.62793398 -27.81911033 101.54641944 C-27.81811459 92.51911613 -27.82634816 83.49203972 -27.85864449 74.46478844 C-27.88596614 66.7788201 -27.89248031 59.09318151 -27.87211622 51.40718564 C-27.86232334 47.48690724 -27.86213789 43.56726138 -27.88817596 39.64704323 C-27.91179019 36.05475386 -27.90746177 32.46359786 -27.88132357 28.87133596 C-27.87455052 26.96350875 -27.89719241 25.05564623 -27.9210425 23.14795607 C-27.82847056 15.45628137 -26.68025259 10.07836337 -21.13256836 4.50793457 C-14.98034079 -0.5791382 -7.61052539 -0.05547458 0 0 Z M64.86743164 96.50793457 C62.80054184 100.2695733 62.61471026 103.51439137 62.60673523 107.76341248 C62.59965042 109.02373795 62.59256561 110.28406342 62.58526611 111.58258057 C62.58755973 112.97168005 62.5900694 114.36077919 62.59277344 115.74987793 C62.58842431 117.21869668 62.58324049 118.68751317 62.57728577 120.15632629 C62.56390639 124.13980272 62.56331589 128.12318421 62.56584907 132.10667872 C62.56691946 135.43422634 62.56203369 138.7617548 62.55724365 142.08929831 C62.54615222 149.94036549 62.54570906 157.79138483 62.55175781 165.64245605 C62.55779877 173.73760739 62.5454827 181.83258497 62.52418774 189.92770666 C62.5065665 196.8824197 62.50057119 203.83707746 62.50382549 210.791812 C62.50563759 214.94358678 62.50300945 219.09523758 62.48911095 223.24699211 C62.4765286 227.15159931 62.47848041 231.05593578 62.49152184 234.96053886 C62.49388626 236.39158724 62.49115769 237.82265469 62.48289871 239.25368118 C62.4724193 241.21092009 62.4823412 243.16823623 62.49320984 245.12547302 C62.4930421 246.21959975 62.49287436 247.31372648 62.49270153 248.44100857 C63.03873778 252.90996561 64.52209128 256.11709037 67.65724373 259.358284 C70.62949635 260.90432989 72.88308164 260.8913848 76.23043823 260.90234375 C78.19459183 260.91936844 78.19459183 260.91936844 80.19842529 260.93673706 C81.64782776 260.93409376 83.09722966 260.93112254 84.54663086 260.92785645 C86.07441835 260.93519659 87.60220029 260.94378266 89.12997437 260.95352173 C93.27881742 260.97575374 97.42746196 260.97866754 101.57635641 260.97677422 C105.04055711 260.97665458 108.50471564 260.98521604 111.96890461 260.99355173 C120.14262838 261.01279231 128.31625002 261.01566743 136.48999023 261.00891113 C144.91980231 261.00227129 153.34917672 261.0251307 161.77890003 261.06222486 C169.01810601 261.09292343 176.25717123 261.10428169 183.49644101 261.10038805 C187.81934418 261.0983205 192.14190688 261.10380028 196.46474838 261.12828064 C200.53117952 261.15054773 204.59689948 261.14867086 208.66333389 261.12835312 C210.15405073 261.12494281 211.64481542 261.13003325 213.13546753 261.1443367 C221.97003035 261.56359839 221.97003035 261.56359839 229.73855591 258.09448242 C232.89599092 254.25825252 232.99699996 252.37817503 233.02133179 247.46136475 C233.02993225 246.17150665 233.03853271 244.88164856 233.0473938 243.55270386 C233.05182919 242.1149296 233.05612754 240.67715492 233.06030273 239.23937988 C233.0682027 237.73159597 233.07647159 236.22381395 233.08508301 234.71603394 C233.11131684 229.75606089 233.12661267 224.79607934 233.14086914 219.83605957 C233.14622839 218.12930038 233.1516059 216.42254124 233.1570015 214.71578217 C233.17863282 207.61627052 233.1973696 200.51676116 233.20862389 193.41722488 C233.22486307 183.23958968 233.25803696 173.06233628 233.31502473 162.88484502 C233.35371915 155.73062992 233.37325601 148.57651696 233.37854445 141.42219996 C233.38219882 137.14841205 233.39422855 132.87503121 233.42664719 128.60135651 C233.4567191 124.57932136 233.46304313 120.55793977 233.45126343 116.53581619 C233.45104261 115.06120747 233.45935465 113.58656851 233.47691727 112.11206436 C233.906616 103.34853632 233.906616 103.34853632 230.45596313 95.64630127 C226.59516628 92.45692558 224.69617438 92.37931581 219.73820496 92.36076355 C218.43007339 92.35360825 217.12194183 92.34645294 215.77416992 92.33908081 C214.31591821 92.33624041 212.85766623 92.3335287 211.39941406 92.33093262 C209.8703038 92.32466914 208.34119507 92.31802245 206.81208801 92.3110199 C202.65085172 92.29359995 198.48962691 92.28305553 194.32836318 92.27481437 C191.72956565 92.26966652 189.1307717 92.26359071 186.5319767 92.25730324 C178.40386885 92.23824874 170.27577011 92.22401792 162.14764422 92.21569127 C152.7595938 92.2059156 143.37177895 92.17958866 133.98381156 92.13919038 C126.73109713 92.10904959 119.47845031 92.09422436 112.22567445 92.09091026 C107.89218186 92.08855751 103.55894087 92.07956818 99.22551537 92.05444908 C95.14855683 92.03119867 91.07201607 92.02692271 86.99500847 92.03721046 C85.49902712 92.03770667 84.00302542 92.03136113 82.50710678 92.01765442 C80.46401719 91.99998227 78.42074685 92.00941169 76.37760925 92.02018738 C74.66282269 92.01660485 74.66282269 92.01660485 72.91339397 92.01294994 C69.12414539 92.62872243 67.52876999 93.76992541 64.86743164 96.50793457 Z"
  />

  <path fill="#2586E5" transform="translate(346,456)" d="M0 0 C15.51 0 31.02 0 47 0 C47 18.48 47 36.96 47 56 C31.49 56 15.98 56 0 56 C0 37.52 0 19.04 0 0 Z" />
  <path fill="#2586E5" transform="translate(119,456)" d="M0 0 C15.51 0 31.02 0 47 0 C47 18.48 47 36.96 47 56 C31.49 56 15.98 56 0 56 C0 37.52 0 19.04 0 0 Z" />
  <path fill="#2686E5" transform="translate(456,346)" d="M0 0 C18.48 0 36.96 0 56 0 C56 15.51 56 31.02 56 47 C37.52 47 19.04 47 0 47 C0 31.49 0 15.98 0 0 Z" />
  <path fill="#2686E5" transform="translate(0,346)" d="M0 0 C18.48 0 36.96 0 56 0 C56 15.51 56 31.02 56 47 C37.52 47 19.04 47 0 47 C0 31.49 0 15.98 0 0 Z" />
  <path fill="#2686E5" transform="translate(456,119)" d="M0 0 C18.48 0 36.96 0 56 0 C56 15.51 56 31.02 56 47 C37.52 47 19.04 47 0 47 C0 31.49 0 15.98 0 0 Z" />
  <path fill="#2686E5" transform="translate(0,119)" d="M0 0 C18.48 0 36.96 0 56 0 C56 15.51 56 31.02 56 47 C37.52 47 19.04 47 0 47 C0 31.49 0 15.98 0 0 Z" />
  <path fill="#2586E5" transform="translate(346,0)" d="M0 0 C15.51 0 31.02 0 47 0 C47 18.48 47 36.96 47 56 C31.49 56 15.98 56 0 56 C0 37.52 0 19.04 0 0 Z" />
  <path fill="#2586E5" transform="translate(119,0)" d="M0 0 C15.51 0 31.02 0 47 0 C47 18.48 47 36.96 47 56 C31.49 56 15.98 56 0 56 C0 37.52 0 19.04 0 0 Z" />
  <path fill="#2586E6" transform="translate(273,456)" d="M0 0 C12.87 0 25.74 0 39 0 C39 18.48 39 36.96 39 56 C26.13 56 13.26 56 0 56 C0 37.52 0 19.04 0 0 Z" />
  <path fill="#2586E6" transform="translate(200,456)" d="M0 0 C12.87 0 25.74 0 39 0 C39 18.48 39 36.96 39 56 C26.13 56 13.26 56 0 56 C0 37.52 0 19.04 0 0 Z" />
  <path fill="#2686E5" transform="translate(456,273)" d="M0 0 C18.48 0 36.96 0 56 0 C56 12.87 56 25.74 56 39 C37.52 39 19.04 39 0 39 C0 26.13 0 13.26 0 0 Z" />
  <path fill="#2686E5" transform="translate(0,273)" d="M0 0 C18.48 0 36.96 0 56 0 C56 12.87 56 25.74 56 39 C37.52 39 19.04 39 0 39 C0 26.13 0 13.26 0 0 Z" />
  <path fill="#2686E5" transform="translate(456,200)" d="M0 0 C18.48 0 36.96 0 56 0 C56 12.87 56 25.74 56 39 C37.52 39 19.04 39 0 39 C0 26.13 0 13.26 0 0 Z" />
  <path fill="#2686E5" transform="translate(0,200)" d="M0 0 C18.48 0 36.96 0 56 0 C56 12.87 56 25.74 56 39 C37.52 39 19.04 39 0 39 C0 26.13 0 13.26 0 0 Z" />
  <path fill="#2586E6" transform="translate(273,0)" d="M0 0 C12.87 0 25.74 0 39 0 C39 18.48 39 36.96 39 56 C26.13 56 13.26 56 0 56 C0 37.52 0 19.04 0 0 Z" />
  <path fill="#2586E6" transform="translate(200,0)" d="M0 0 C12.87 0 25.74 0 39 0 C39 18.48 39 36.96 39 56 C26.13 56 13.26 56 0 56 C0 37.52 0 19.04 0 0 Z" />
</svg>
